HIERARCHY
ROOT Hips
{
	OFFSET 0.000000 0.000000 0.000000
	CHANNELS 6 Xposition Yposition Zposition Zrotation Yrotation Xrotation 
	JOINT LowerBack
	{
		OFFSET 0.000000 0.000000 0.000000
		CHANNELS 3 Zrotation Yrotation Xrotation
		JOINT Spine
		{
			OFFSET 0.028270 2.035590 -0.193380
			CHANNELS 3 Zrotation Yrotation Xrotation
			JOINT Spine1
			{
				OFFSET 0.056720 2.048850 -0.042750
				CHANNELS 3 Zrotation Yrotation Xrotation
				JOINT Neck
				{
					OFFSET 0.000000 0.000000 0.000000
					CHANNELS 3 Zrotation Yrotation Xrotation
					JOINT Neck1
					{
						OFFSET -0.054170 1.746240 0.172020
						CHANNELS 3 Zrotation Yrotation Xrotation
						JOINT Head
						{
							OFFSET 0.104070 1.761360 -0.123970
							CHANNELS 3 Zrotation Yrotation Xrotation
							End Site
							{
								OFFSET 0.000000 0.000000 0.000000
							}
						}
					}
				}
				JOINT LeftShoulder
				{
					OFFSET 0.000000 0.000000 0.000000
					CHANNELS 3 Zrotation Yrotation Xrotation
					JOINT LeftArm
					{
						OFFSET 3.362410 1.200890 -0.311210
						CHANNELS 3 Zrotation Yrotation Xrotation
						JOINT LeftForeArm
						{
							OFFSET 4.983000 -0.000000 -0.000000
							CHANNELS 3 Zrotation Yrotation Xrotation
							JOINT LeftHand
							{
								OFFSET 3.483560 -0.000000 -0.000000
								CHANNELS 3 Zrotation Yrotation Xrotation
								JOINT LeftFingerBase
								{
									OFFSET 0.000000 0.000000 0.000000
									CHANNELS 3 Zrotation Yrotation Xrotation
									JOINT LeftHandIndex1
									{
										OFFSET 0.715260 -0.000000 -0.000000
										CHANNELS 3 Zrotation Yrotation Xrotation
										End Site
										{
											OFFSET 0.000000 0.000000 0.000000
										}
									}
								}
								JOINT LThumb
								{
									OFFSET 0.000000 0.000000 0.000000
									CHANNELS 3 Zrotation Yrotation Xrotation
									End Site
									{
										OFFSET 0.000000 0.000000 0.000000
									}
								}
							}
						}
					}
				}
				JOINT RightShoulder
				{
					OFFSET 0.000000 0.000000 0.000000
					CHANNELS 3 Zrotation Yrotation Xrotation
					JOINT RightArm
					{
						OFFSET -3.136600 1.374050 -0.404650
						CHANNELS 3 Zrotation Yrotation Xrotation
						JOINT RightForeArm
						{
							OFFSET -5.241900 -0.000000 -0.000000
							CHANNELS 3 Zrotation Yrotation Xrotation
							JOINT RightHand
							{
								OFFSET -3.444170 -0.000000 -0.000000
								CHANNELS 3 Zrotation Yrotation Xrotation
								JOINT RightFingerBase
								{
									OFFSET 0.000000 0.000000 0.000000
									CHANNELS 3 Zrotation Yrotation Xrotation
									JOINT RightHandIndex1
									{
										OFFSET -0.622530 -0.000000 -0.000000
										CHANNELS 3 Zrotation Yrotation Xrotation
										End Site
										{
											OFFSET 0.000000 0.000000 0.000000
										}
									}
								}
								JOINT RThumb
								{
									OFFSET 0.000000 0.000000 0.000000
									CHANNELS 3 Zrotation Yrotation Xrotation
									End Site
									{
										OFFSET 0.000000 0.000000 0.000000
									}
								}
							}
						}
					}
				}
			}
		}
	}
}
}
MOTION
Frames: 9
Frame Time: 0.008333
24.992394 16.274489 2.083987 140.771879 -85.892240 -121.138725 -7.676451 1.283877 -5.865487 -2.638475 1.663439 -4.499091 -6.977798 1.476400 -0.506945 10.295877 0.509683 -6.410526 -4.277287 -0.346326 0.227428 0.000000 0.000000 0.000000 -4.408024 14.671492 3.153339 -62.506847 18.637978 -1.095872 -4.378013 -9.048513 -0.002461 3.588904 3.809869 0.124331 -0.091682 -0.063530 -0.000000 0.000000 0.000000 0.000000 0.000000 0.000000 0.000000 18.725943 8.141978 0.519879 71.896803 33.509382 21.574838 2.122561 43.263948 0.012539 1.391530 9.262099 0.117147 0.012544 -0.336380 -0.000000 0.000000 0.000000 0.000000 0.000000 0.000000 0.000000 
24.788473 16.311413 2.086129 137.477973 -85.871798 -117.931946 -7.982095 1.231007 -5.853310 -2.714584 1.639510 -4.502634 -7.008440 1.452153 -0.528589 10.409665 0.538921 -6.393271 -4.295437 -0.347593 0.227323 0.000000 0.000000 0.000000 -4.310116 14.446007 3.142016 -62.508999 17.717759 -0.931659 -4.371108 -8.756571 -0.002530 3.722326 3.839706 0.129640 -0.089763 -0.058697 -0.000000 0.000000 0.000000 0.000000 0.000000 0.000000 0.000000 18.895913 8.094827 0.532333 72.139853 32.476692 21.067592 2.123891 42.703332 0.011689 1.173853 9.341879 0.099344 0.015403 -0.333298 -0.000000 0.000000 0.000000 0.000000 0.000000 0.000000 0.000000 
24.588475 16.349649 2.089325 134.640147 -85.802272 -115.186509 -8.274949 1.180401 -5.827346 -2.786111 1.616566 -4.502988 -7.034359 1.428464 -0.547813 10.511644 0.569670 -6.373122 -4.313184 -0.348770 0.228005 0.000000 0.000000 0.000000 -4.229592 14.205130 3.128559 -62.563868 16.745270 -0.757286 -4.357444 -8.510962 -0.002526 3.877294 3.837695 0.134549 -0.087494 -0.053811 -0.000000 0.000000 0.000000 0.000000 0.000000 0.000000 0.000000 19.055038 8.039913 0.547966 72.395567 31.467290 20.572705 2.127095 42.025962 0.010835 0.955678 9.410275 0.081235 0.018261 -0.329203 -0.000000 0.000000 0.000000 0.000000 0.000000 0.000000 0.000000 
24.392621 16.388902 2.093775 132.264548 -85.697824 -112.903829 -8.547120 1.127776 -5.793390 -2.850795 1.589589 -4.500555 -7.056117 1.400201 -0.563466 10.602255 0.602266 -6.349596 -4.330643 -0.349878 0.229768 0.000000 0.000000 0.000000 -4.169638 13.950468 3.112699 -62.669873 15.729406 -0.565280 -4.337194 -8.319743 -0.002453 4.050369 3.799854 0.138862 -0.084916 -0.048953 -0.000000 0.000000 0.000000 0.000000 0.000000 0.000000 0.000000 19.204160 7.974850 0.566099 72.663143 30.487683 20.086841 2.132806 41.232744 0.010050 0.754891 9.458127 0.064120 0.020908 -0.323953 -0.000000 0.000000 0.000000 0.000000 0.000000 0.000000 0.000000 
24.200738 16.428999 2.100045 130.387356 -85.581549 -111.113219 -8.776642 1.070873 -5.757948 -2.903597 1.554534 -4.494736 -7.073681 1.363417 -0.569777 10.678811 0.633626 -6.327339 -4.347251 -0.350823 0.231612 0.000000 0.000000 0.000000 -4.135852 13.706031 3.093005 -62.821639 14.646476 -0.321153 -4.309855 -8.170352 -0.002322 4.238005 3.722787 0.141976 -0.082074 -0.044118 -0.000000 0.000000 0.000000 0.000000 0.000000 0.000000 0.000000 19.337007 7.894788 0.583606 72.942017 29.546583 19.609221 2.141969 40.325383 0.009382 0.582808 9.483237 0.049199 0.023268 -0.317446 -0.000000 0.000000 0.000000 0.000000 0.000000 0.000000 0.000000 
24.012991 16.469963 2.107538 128.848468 -85.455706 -109.657030 -8.973140 1.005968 -5.718485 -2.947057 1.508443 -4.486245 -7.089666 1.315098 -0.572241 10.748333 0.663871 -6.300095 -4.364347 -0.351793 0.235150 0.000000 0.000000 0.000000 -4.125011 13.440176 3.070818 -63.013105 13.540280 -0.033210 -4.277294 -8.092963 -0.002161 4.431099 3.614489 0.143792 -0.079071 -0.039410 -0.000000 0.000000 0.000000 0.000000 0.000000 0.000000 0.000000 19.468469 7.797647 0.604085 73.225865 28.640952 19.126545 2.154703 39.314500 0.008872 0.453153 9.474763 0.037872 0.025167 -0.309723 -0.000000 0.000000 0.000000 0.000000 0.000000 0.000000 0.000000 
23.829354 16.511872 2.116321 127.611425 -85.333402 -108.499738 -9.127126 0.932311 -5.675513 -2.979474 1.449807 -4.474835 -7.105270 1.253849 -0.570216 10.811843 0.692378 -6.268384 -4.382051 -0.352793 0.240320 0.000000 0.000000 0.000000 -4.138712 13.156681 3.046061 -63.235273 12.407352 0.324632 -4.240085 -8.088316 -0.001995 4.622468 3.481682 0.144210 -0.075995 -0.034809 -0.000000 0.000000 0.000000 0.000000 0.000000 0.000000 0.000000 19.599368 7.682490 0.626901 73.509010 27.769415 18.625816 2.171108 38.212646 0.008528 0.371383 9.430431 0.030542 0.026560 -0.300858 -0.000000 0.000000 0.000000 0.000000 0.000000 0.000000 0.000000 
23.649689 16.554886 2.126152 126.611945 -85.219748 -107.577319 -9.239004 0.849687 -5.627682 -3.001448 1.378434 -4.461172 -7.122091 1.179475 -0.567463 10.871980 0.724325 -6.228259 -4.400814 -0.353903 0.248156 0.000000 0.000000 0.000000 -4.174986 12.842388 3.020131 -63.477535 11.265013 0.764343 -4.199469 -8.169855 -0.001855 4.804700 3.336174 0.143328 -0.072955 -0.030309 -0.000000 0.000000 0.000000 0.000000 0.000000 0.000000 0.000000 19.733112 7.554605 0.653118 73.785056 26.917807 18.078679 2.190529 37.042085 0.008348 0.344875 9.343199 0.027906 0.027328 -0.290991 -0.000000 0.000000 0.000000 0.000000 0.000000 0.000000 0.000000 
23.473841 16.599080 2.137311 125.861212 -85.129762 -106.897740 -9.293629 0.759793 -5.576299 -3.010156 1.294796 -4.443943 -7.140680 1.092773 -0.557751 10.928825 0.744546 -6.187367 -4.420153 -0.355012 0.256712 0.000000 0.000000 0.000000 -4.237331 12.516955 2.991134 -63.728219 10.085183 1.320669 -4.155522 -8.324838 -0.001763 4.973198 3.186650 0.141448 -0.070053 -0.025823 -0.000000 0.000000 0.000000 0.000000 0.000000 0.000000 0.000000 19.869473 7.399145 0.681286 74.045924 26.101608 17.500894 2.214098 35.808575 0.008285 0.355878 9.224705 0.028368 0.027813 -0.280284 -0.000000 0.000000 0.000000 0.000000 0.000000 0.000000 0.000000 
